<svg id="Layer_1" data-name="Layer 1" xmlns="http://www.w3.org/2000/svg" viewBox="0 0 1200 365.16"><defs><style>.cls-1{fill:#fff;}.cls-2{fill:#ba2027;}.cls-3,.cls-4,.cls-5{fill:#0e191a;}.cls-4,.cls-5{font-size:277.48px;font-family:Georgia;}.cls-4{letter-spacing:-0.05em;}.cls-5{letter-spacing:-0.05em;}</style></defs><title>logo_full</title><rect class="cls-1" x="43.82" y="14.61" width="376.85" height="321.34"/><path class="cls-2" d="M423.59,17.33H43.82C19,17.33,0,36.32,0,61.15V324.07c0,24.83,19,43.82,43.82,43.82H189.88c0,7.3,7.31,14.61,14.61,14.61h58.43c7.3,0,14.6-7.31,14.6-14.61H423.59c24.83,0,43.82-19,43.82-43.82V61.15C467.41,36.32,448.42,17.33,423.59,17.33ZM241,31.94H423.59V324.07H273.14c-8.76,0-17.53,2.92-26.29,5.84L241,332.83Zm-197.19,0H226.4V332.83l-5.84-2.92c-7.3-4.38-17.53-5.84-26.29-5.84H43.82Z" transform="translate(0 -17.33)"/><path class="cls-3" d="M423.59,17.33H43.82C19,17.33,0,36.32,0,61.15V324.07c0,24.83,19,43.82,43.82,43.82H189.88c0,7.3,7.31,14.61,14.61,14.61h58.43c7.3,0,14.6-7.31,14.6-14.61H423.59c24.83,0,43.82-19,43.82-43.82V61.15C467.41,36.32,448.42,17.33,423.59,17.33ZM241,31.94H423.59V324.07H273.14c-8.76,0-17.53,2.92-26.29,5.84L241,332.83Zm-197.19,0H226.4V332.83l-5.84-2.92c-7.3-4.38-17.53-5.84-26.29-5.84H43.82Zm409,292.13a29.29,29.29,0,0,1-29.21,29.21H262.92v14.61H204.49V353.28H43.82a29.29,29.29,0,0,1-29.21-29.21V61.15c0-10.22,5.84-20.45,14.6-24.83V324.07c0,7.3,7.31,14.61,14.61,14.61H194.27a40.48,40.48,0,0,1,19,4.38l13.14,7.3c1.46,1.46,4.38,1.46,7.3,1.46s4.39,0,7.31-1.46l13.14-7.3a45,45,0,0,1,19-4.38H423.59c7.3,0,14.61-7.31,14.61-14.61V36.32c8.76,4.38,14.6,14.61,14.6,24.83Z" transform="translate(0 -17.33)"/><text class="cls-4" transform="translate(63.37 250.63)">J P</text><text class="cls-5" transform="translate(515.76 250.63)">Dixon</text></svg>