<?xml version="1.0" encoding="utf-8"?>
<!-- Generator: Adobe Illustrator 23.1.0, SVG Export Plug-In . SVG Version: 6.00 Build 0)  -->
<svg version="1.1"
	 id="DESIGNS" xmlns:cc="http://creativecommons.org/ns#" xmlns:dc="http://purl.org/dc/elements/1.1/" xmlns:rdf="http://www.w3.org/1999/02/22-rdf-syntax-ns#"
	 xmlns="http://www.w3.org/2000/svg" xmlns:xlink="http://www.w3.org/1999/xlink" x="0px" y="0px" viewBox="0 0 32 32"
	 style="enable-background:new 0 0 32 32;" xml:space="preserve">
<style type="text/css">
	.st0{fill:#FFFFFF;}
	.st1{fill:#B92025;}
	.st2{fill:#0B1719;}
	.st3{font-family:'Georgia';}
	.st4{font-size:18.9968px;}
</style>
<rect x="3" y="5" class="st0" width="25.8" height="22"/>
<path class="st1" d="M29,4H3C1.3,4,0,5.3,0,7v18c0,1.7,1.3,3,3,3h10c0,0.5,0.5,1,1,1h4c0.5,0,1-0.5,1-1h10c1.7,0,3-1.3,3-3V7
	C32,5.3,30.7,4,29,4z M16.5,5H29v20H18.7c-0.6,0-1.2,0.2-1.8,0.4l-0.4,0.2C16.5,25.6,16.5,5,16.5,5z M3,5h12.5v20.6l-0.4-0.2
	c-0.5-0.3-1.2-0.4-1.8-0.4H3V5z"/>
<path class="st2" d="M29,4H3C1.3,4,0,5.3,0,7v18c0,1.7,1.3,3,3,3h10c0,0.5,0.5,1,1,1h4c0.5,0,1-0.5,1-1h10c1.7,0,3-1.3,3-3V7
	C32,5.3,30.7,4,29,4z M16.5,5H29v20H18.7c-0.6,0-1.2,0.2-1.8,0.4l-0.4,0.2C16.5,25.6,16.5,5,16.5,5z M3,5h12.5v20.6l-0.4-0.2
	c-0.5-0.3-1.2-0.4-1.8-0.4H3V5z M31,25c0,1.1-0.9,2-2,2H18v1h-4v-1H3c-1.1,0-2-0.9-2-2V7c0-0.7,0.4-1.4,1-1.7V25c0,0.5,0.5,1,1,1
	h10.3c0.5,0,0.9,0.1,1.3,0.3l0.9,0.5c0.1,0.1,0.3,0.1,0.5,0.1c0.2,0,0.3,0,0.5-0.1l0.9-0.5c0.4-0.2,0.9-0.3,1.3-0.3H29
	c0.5,0,1-0.5,1-1V5.3c0.6,0.3,1,1,1,1.7V25z"/>
<text transform="matrix(1 0 0 1 4.3389 21.1592)" class="st2 st3 st4">J P</text>
</svg>
