<?xml version="1.0" encoding="utf-8"?>
<!-- Generator: Adobe Illustrator 23.1.0, SVG Export Plug-In . SVG Version: 6.00 Build 0)  -->
<svg version="1.1" id="Layer_1" xmlns="http://www.w3.org/2000/svg" xmlns:xlink="http://www.w3.org/1999/xlink" x="0px" y="0px"
	 viewBox="0 0 1200 365.2" style="enable-background:new 0 0 1200 365.2;" xml:space="preserve">
<style type="text/css">
	.st0{fill:#FFFFFF;}
	.st1{fill:#BA2027;}
	.st2{fill:#0E191A;}
	.st3{font-family:'Georgia';}
	.st4{font-size:277.48px;}
	.st5{letter-spacing:-13;}
	.st6{fill:#A4A7AA;}
</style>
<title>logo_full</title>
<rect x="43.8" y="14.6" class="st0" width="376.9" height="321.3"/>
<path class="st1" d="M423.6,0H43.8C19,0,0,19,0,43.8v262.9c0,24.8,19,43.8,43.8,43.8h146.1c0,7.3,7.3,14.6,14.6,14.6h58.4
	c7.3,0,14.6-7.3,14.6-14.6h146.1c24.8,0,43.8-19,43.8-43.8V43.8C467.4,19,448.4,0,423.6,0z M241,14.6h182.6v292.1H273.1
	c-8.8,0-17.5,2.9-26.3,5.8l-5.9,2.9V14.6z M43.8,14.6h182.6v300.9l-5.8-2.9c-7.3-4.4-17.5-5.8-26.3-5.8H43.8L43.8,14.6z"/>
<path class="st2" d="M423.6,0H43.8C19,0,0,19,0,43.8v262.9c0,24.8,19,43.8,43.8,43.8h146.1c0,7.3,7.3,14.6,14.6,14.6h58.4
	c7.3,0,14.6-7.3,14.6-14.6h146.1c24.8,0,43.8-19,43.8-43.8V43.8C467.4,19,448.4,0,423.6,0z M241,14.6h182.6v292.1H273.1
	c-8.8,0-17.5,2.9-26.3,5.8l-5.9,2.9V14.6z M43.8,14.6h182.6v300.9l-5.8-2.9c-7.3-4.4-17.5-5.8-26.3-5.8H43.8L43.8,14.6z
	 M452.8,306.7c0,16.1-13.1,29.2-29.2,29.2H262.9v14.6h-58.4V336H43.8c-16.1,0-29.2-13.1-29.2-29.2V43.8c0-10.2,5.8-20.4,14.6-24.8
	v287.8c0,7.3,7.3,14.6,14.6,14.6h150.5c6.6-0.1,13.1,1.4,19,4.4l13.1,7.3c1.5,1.5,4.4,1.5,7.3,1.5s4.4,0,7.3-1.5l13.1-7.3
	c5.9-2.8,12.4-4.3,19-4.4h150.4c7.3,0,14.6-7.3,14.6-14.6V19c8.8,4.4,14.6,14.6,14.6,24.8L452.8,306.7z"/>
<text transform="matrix(1 0 0 1 63.37 250.63)" class="st2 st3 st4 st5">J P</text>
<text transform="matrix(1 0 0 1 515.76 250.63)" class="st6 st3 st4 st5">Dixon</text>
</svg>
